<?xml version="1.0" standalone="no"?>
<!DOCTYPE svg PUBLIC "-//W3C//DTD SVG 20010904//EN"
 "http://www.w3.org/TR/2001/REC-SVG-20010904/DTD/svg10.dtd">
<svg version="1.0" xmlns="http://www.w3.org/2000/svg"
 width="100.000000pt" height="100.000000pt" viewBox="0 0 100.000000 100.000000"
 preserveAspectRatio="xMidYMid meet">
<metadata>
Created by potrace 1.14, written by Peter Selinger 2001-2017
</metadata>
<g transform="translate(0.000000,100.000000) scale(0.100000,-0.100000)"
fill="#000000" stroke="none">
<path d="M405 879 c4 -5 -5 -9 -18 -9 -31 0 -79 -24 -69 -35 4 -5 2 -5 -5 -1
-11 6 -28 -5 -92 -63 -14 -13 -35 -44 -47 -68 -12 -23 -24 -39 -28 -35 -4 4
-7 2 -6 -3 6 -26 -1 -46 -12 -39 -7 4 -10 4 -6 -1 4 -4 1 -20 -8 -36 -8 -16
-14 -30 -13 -31 1 -2 -12 -26 -28 -53 -16 -28 -29 -60 -28 -72 1 -12 -2 -20
-7 -17 -4 3 -8 -3 -9 -13 0 -10 -1 -37 -3 -61 -1 -24 3 -47 10 -53 6 -5 10
-20 9 -34 -2 -14 2 -28 7 -32 7 -4 8 -1 3 7 -5 9 -4 11 4 6 7 -4 10 -13 8 -19
-4 -14 71 -87 90 -87 7 0 13 -4 13 -10 0 -5 13 -10 28 -10 24 0 33 9 60 59 17
32 28 61 25 65 -4 3 -1 6 5 6 6 0 14 10 18 23 3 12 14 33 24 47 9 14 15 31 12
39 -3 8 0 11 7 7 7 -5 11 1 11 13 0 12 5 21 10 21 6 0 10 6 10 13 0 19 24 67
33 67 5 0 6 4 2 9 -3 5 2 16 11 25 8 9 12 20 9 26 -3 5 -1 10 4 10 6 0 11 7
11 15 0 18 -10 16 160 18 74 1 141 6 149 11 11 7 12 6 6 -5 -7 -11 -6 -12 6
-2 8 6 23 13 34 15 11 1 26 11 33 21 7 9 18 17 24 17 15 0 49 41 42 51 -3 5 2
6 11 3 11 -5 14 -2 8 12 -4 12 -3 15 5 10 8 -5 12 0 12 13 0 12 4 21 8 21 4 0
8 8 8 18 1 9 5 26 9 36 6 15 5 17 -5 11 -10 -6 -11 -4 -4 6 13 21 15 49 4 49
-6 0 -10 7 -10 15 0 14 -35 15 -275 15 -169 -1 -273 -5 -270 -11z"/>
</g>
</svg>
